<svg version="1.1" id="Layer_1" xmlns="http://www.w3.org/2000/svg" xmlns:xlink="http://www.w3.org/1999/xlink" x="0px" y="0px"
	 width="100%" viewBox="0 0 400 400" enable-background="new 0 0 400 400" xml:space="preserve">
<path fill="#FFFFFF" opacity="1.000000" stroke="none" 
	d="
M401.000000,102.000000 
	C401.000000,200.666672 400.977112,298.833374 401.095612,396.999878 
	C401.099731,400.424011 400.423798,401.097992 396.999908,401.095062 
	C266.333344,400.982758 135.666656,400.982758 5.000082,401.095032 
	C1.576226,401.097992 0.902022,400.423798 0.904964,396.999908 
	C1.017250,266.333344 1.017250,135.666656 0.904964,5.000082 
	C0.902022,1.576226 1.576226,0.902021 5.000082,0.904963 
	C135.666656,1.017256 266.333344,1.017256 396.999908,0.904963 
	C400.423798,0.902021 401.117310,1.573462 401.099457,5.000518 
	C400.931915,37.166313 401.000000,69.333336 401.000000,102.000000 
z"/>
<path fill="#B0932B" opacity="1.000000" stroke="none" 
	d="
M19.020958,127.000000 
	C19.020967,92.334511 19.074219,58.168819 18.944897,24.003819 
	C18.930779,20.273624 19.628054,18.916145 23.780231,18.920492 
	C141.942688,19.044180 260.105316,19.036745 378.267853,18.942169 
	C381.915588,18.939249 383.048431,19.741428 383.044952,23.585728 
	C382.937225,141.914886 382.943604,260.244171 383.025146,378.573364 
	C383.027466,381.942413 382.326538,383.115601 378.686127,383.112610 
	C260.190277,383.015411 141.694321,383.004974 23.198553,383.139252 
	C18.758684,383.144287 18.990431,381.017212 18.991755,377.991211 
	C19.028250,294.494141 19.020966,210.997070 19.020958,127.000000 
z"/>
<path fill="#FFFEFE" opacity="1.000000" stroke="none" 
	d="
M102.000031,24.771664 
	C192.142242,24.771652 281.784485,24.800852 371.426544,24.683485 
	C375.785095,24.677778 377.286621,25.516113 377.280273,30.302534 
	C377.129303,144.104599 377.129578,257.906952 377.279602,371.709045 
	C377.285889,376.486908 375.795624,377.340302 371.428223,377.336029 
	C257.792694,377.224731 144.156982,377.225372 30.521412,377.333923 
	C26.173414,377.338074 24.639288,376.513824 24.645660,371.710541 
	C24.796621,257.908447 24.796402,144.106094 24.646338,30.304014 
	C24.640009,25.506418 26.163639,24.642763 30.520565,24.678822 
	C54.179024,24.874617 77.839951,24.771770 102.000031,24.771664 
z"/>
<path fill="#AA8B1B" opacity="1.000000" stroke="none" 
	d="
M284.979248,236.000000 
	C284.979431,227.343521 284.957428,219.186920 284.997833,211.030640 
	C285.006226,209.332291 284.353912,207.157715 287.406555,207.217484 
	C301.871368,207.500763 316.412262,206.160172 330.782959,208.347198 
	C344.257721,210.397888 350.454681,217.625687 350.787445,232.642487 
	C351.277771,254.770035 351.324463,276.925842 350.797089,299.051422 
	C350.407074,315.414581 340.669952,323.871155 322.055450,324.747955 
	C310.760162,325.279999 299.419708,324.781311 288.105042,325.012482 
	C284.102753,325.094238 284.997253,322.541962 284.995392,320.395294 
	C284.971222,292.430206 284.979309,264.465088 284.979248,236.000000 
z"/>
<path fill="#AA8B1B" opacity="1.000000" stroke="none" 
	d="
M132.092987,208.403320 
	C132.635590,207.731140 133.066635,207.315002 133.492737,207.319992 
	C147.634674,207.485519 161.805008,206.385117 175.914047,207.953781 
	C189.456696,209.459442 196.807266,217.643143 197.064392,231.169724 
	C197.108688,233.500854 196.996109,235.836807 197.094009,238.164749 
	C197.519592,248.284592 193.954361,256.065765 183.622375,260.419464 
	C194.980042,266.472992 196.513229,276.875031 196.792053,287.738678 
	C196.988586,295.395630 196.822113,303.061707 196.833481,310.723694 
	C196.840393,315.376587 196.672638,320.052826 198.812805,324.940430 
	C190.818024,324.940430 183.219437,324.901489 175.621567,324.957855 
	C172.137024,324.983704 172.069626,322.337585 171.995819,320.134216 
	C171.700439,311.316254 171.649048,302.490356 171.459290,293.668457 
	C171.387726,290.341736 171.312714,287.006042 171.006592,283.695953 
	C170.711304,280.502899 169.132462,278.151031 165.998489,276.853455 
	C159.223602,274.048401 157.132111,275.322968 157.131821,282.452087 
	C157.131302,295.111053 156.965652,307.773468 157.230957,320.426880 
	C157.312210,324.302399 156.095261,325.234894 152.456726,325.024567 
	C147.144394,324.717468 141.782547,324.673615 136.477219,325.035980 
	C132.591187,325.301392 131.840927,323.920380 131.858276,320.286865 
	C132.003876,289.806152 131.938843,259.324432 131.942749,228.843002 
	C131.943588,222.180573 131.966415,215.518127 132.092987,208.403320 
z"/>
<path fill="#A98A1A" opacity="1.000000" stroke="none" 
	d="
M207.033798,136.000000 
	C207.033920,117.676735 207.115814,99.852753 206.960175,82.030853 
	C206.931519,78.750107 207.861084,77.820457 211.127411,77.874184 
	C222.784378,78.065910 234.447571,77.847260 246.106140,77.981346 
	C263.513367,78.181557 272.032043,86.862801 272.074188,104.281570 
	C272.083435,108.108353 272.271027,111.994301 271.700043,115.750160 
	C270.595978,123.012627 266.019684,127.863602 258.733154,130.976486 
	C269.295624,136.717636 271.352997,146.026932 271.801514,155.911072 
	C272.148499,163.557983 271.872375,171.232635 271.896118,178.894897 
	C271.912598,184.202744 271.486420,189.549255 273.626282,195.251480 
	C265.551300,195.251480 257.921478,195.309433 250.293228,195.225494 
	C246.808716,195.187149 247.105667,192.181992 247.043503,190.088593 
	C246.781540,181.267487 246.843964,172.437302 246.669861,163.612747 
	C246.604401,160.294266 246.446838,156.945908 245.927032,153.675415 
	C245.115509,148.569733 238.596237,144.732269 233.654831,146.117203 
	C231.137802,146.822647 232.172058,148.820724 232.163101,150.239731 
	C232.077805,163.731567 231.958115,177.227036 232.209808,190.714722 
	C232.281693,194.565918 231.107117,195.566742 227.440628,195.346603 
	C222.295425,195.037689 217.104065,195.037704 211.958603,195.344452 
	C208.135757,195.572357 206.878738,194.523544 206.931793,190.467896 
	C207.167114,172.481216 207.033783,154.489746 207.033798,136.000000 
z"/>
<path fill="#AA8B1B" opacity="1.000000" stroke="none" 
	d="
M192.797501,94.446213 
	C194.491425,99.776733 195.199020,104.842957 195.184265,110.050079 
	C195.134720,127.540672 195.145508,145.031555 195.187408,162.522186 
	C195.197845,166.877670 194.772095,171.171829 193.685318,175.374344 
	C190.423599,187.987320 181.321884,195.252304 166.768356,196.762115 
	C161.277237,197.331772 155.768692,197.062485 150.382187,195.775650 
	C137.048691,192.590271 128.354599,182.400391 128.056503,168.066483 
	C127.616760,146.922470 127.622963,125.756142 128.049210,104.611626 
	C128.349045,89.737991 137.394302,79.766365 151.915009,76.790520 
	C159.206039,75.296303 166.507919,75.463196 173.690659,77.264862 
	C182.853714,79.563278 189.326035,85.098442 192.797501,94.446213 
z"/>
<path fill="#AA8B1B" opacity="1.000000" stroke="none" 
	d="
M342.313416,188.300934 
	C330.523987,198.770660 307.906555,199.969360 295.392731,191.026718 
	C288.247192,185.920364 284.597229,178.582230 284.067017,170.209442 
	C282.634735,147.592529 282.523132,124.914803 284.070679,102.306610 
	C285.102631,87.230682 296.248596,77.172974 311.902435,76.091454 
	C316.202789,75.794350 320.632050,75.689682 324.863617,76.364853 
	C341.565826,79.029770 350.466095,89.276100 350.855530,107.119812 
	C351.280853,126.605484 351.174744,146.111465 350.843170,165.600830 
	C350.702881,173.846191 348.538177,181.751801 342.313416,188.300934 
z"/>
<path fill="#AA8B1C" opacity="1.000000" stroke="none" 
	d="
M98.032166,76.638535 
	C111.721230,81.321083 117.536415,90.807739 117.424423,104.574081 
	C117.397705,107.858101 116.843178,109.378174 113.124290,109.154762 
	C107.814522,108.835785 102.462479,108.887726 97.145691,109.141647 
	C93.881935,109.297516 92.842346,108.288208 92.955452,104.987747 
	C93.100143,100.765755 91.922279,96.909035 86.924355,96.039665 
	C84.016914,95.533920 81.211617,95.944687 79.354263,98.642082 
	C77.287392,101.643730 77.339012,104.908386 78.600380,108.156601 
	C80.152267,112.152954 83.263474,114.999588 86.232712,117.909775 
	C94.193565,125.712280 102.799988,132.847427 109.981918,141.455109 
	C118.681953,151.882294 121.012878,163.617798 117.246201,176.480301 
	C113.649986,188.760666 103.401627,195.616379 87.678558,196.788239 
	C82.829941,197.149612 78.011879,196.734268 73.298988,195.625168 
	C55.290974,191.387375 50.991035,177.364929 51.017086,163.447220 
	C51.020798,161.464951 51.813389,160.863998 53.678658,160.880814 
	C60.339241,160.940918 67.001457,160.958298 73.661415,160.869141 
	C75.772232,160.840881 76.740227,161.537140 76.620430,163.722214 
	C76.547966,165.043869 76.698219,166.381866 76.802422,167.708267 
	C77.090919,171.380676 78.064598,174.790375 82.058075,175.916245 
	C85.208511,176.804443 88.419426,176.570831 90.807388,173.860596 
	C93.636932,170.649185 93.879570,166.959564 92.261925,163.148315 
	C90.806168,159.718491 88.263725,157.027481 85.704132,154.413208 
	C77.666275,146.203659 69.476357,138.141373 61.515125,129.858826 
	C51.959648,119.917679 49.630455,102.292542 56.129883,90.347183 
	C59.476639,84.196144 64.804520,80.402534 71.582329,77.894852 
	C72.778412,76.735931 73.803238,75.923676 75.175407,75.657631 
	C82.736168,74.191666 90.274933,73.525513 98.032166,76.638535 
z"/>
<path fill="#AA8B1B" opacity="1.000000" stroke="none" 
	d="
M72.290977,325.434937 
	C57.244713,320.499268 51.422413,309.393494 51.122887,295.066498 
	C50.719028,275.749054 50.766056,256.412445 51.096409,237.092194 
	C51.431507,217.494751 62.982853,206.355331 82.537186,205.936020 
	C87.555099,205.828430 92.533913,206.029541 97.379738,207.422012 
	C109.586464,210.929611 116.355675,219.966461 117.821449,234.595245 
	C119.047890,246.835388 119.047897,246.835709 106.993439,246.835236 
	C102.994949,246.835083 98.994522,246.758377 94.998741,246.861725 
	C92.852089,246.917252 92.014000,246.112396 92.072166,243.952164 
	C92.161774,240.623764 92.173546,237.282455 91.985283,233.959839 
	C91.681831,228.604355 89.070541,225.972733 84.381607,226.008331 
	C79.898949,226.042358 77.078415,228.563690 77.041687,233.656250 
	C76.885498,255.312424 76.882080,276.971008 77.034706,298.627197 
	C77.071251,303.813446 79.706558,306.072540 84.438385,306.099121 
	C89.194130,306.125854 91.650803,303.866272 91.956306,298.742767 
	C92.193970,294.757080 92.201271,290.744568 92.052483,286.753571 
	C91.953659,284.102661 92.527718,282.826752 95.568588,282.924988 
	C102.059395,283.134705 108.562271,283.042328 115.058807,282.961517 
	C117.109581,282.936035 118.063591,283.480164 118.035591,285.750671 
	C117.961693,291.744781 118.182533,297.751648 116.842430,303.652649 
	C114.540878,313.787323 108.791039,320.996277 98.615372,324.834839 
	C89.878052,329.205750 81.298645,329.076324 72.290977,325.434937 
z"/>
<path fill="#AA8C1D" opacity="1.000000" stroke="none" 
	d="
M227.008606,324.950378 
	C222.237503,324.653809 216.693680,326.783325 214.019562,324.059937 
	C211.355484,321.346741 213.213577,315.819580 213.204941,311.536530 
	C213.138412,278.541504 213.268188,245.545670 213.052338,212.551956 
	C213.022598,208.005539 214.337677,207.039429 218.641098,207.111389 
	C234.301071,207.373245 249.969086,207.308334 265.631653,207.141159 
	C269.029968,207.104889 270.405060,207.892654 270.165924,211.523453 
	C269.859985,216.169312 269.935760,220.857651 270.149017,225.513870 
	C270.279663,228.366364 269.335052,229.229568 266.496765,229.168701 
	C258.501617,228.997314 250.497910,229.223816 242.502945,229.048660 
	C239.640457,228.985947 238.747864,229.895966 238.838654,232.726151 
	C239.025558,238.552628 239.089050,244.398331 238.818726,250.218246 
	C238.666885,253.486938 239.930664,254.100342 242.851227,254.013275 
	C249.344498,253.819748 255.852402,254.101547 262.344452,253.888458 
	C265.479431,253.785553 266.871155,254.503540 266.659607,257.961670 
	C266.375214,262.610291 266.382568,267.301453 266.656647,271.951263 
	C266.859955,275.400452 265.465149,276.127716 262.327881,276.023834 
	C255.835953,275.808868 249.327972,276.092163 242.834702,275.898621 
	C239.905228,275.811279 238.685303,276.449829 238.816788,279.704132 
	C239.078964,286.192566 239.067520,292.705658 238.820755,299.195282 
	C238.699356,302.388184 239.819489,303.111969 242.809326,303.042267 
	C250.970337,302.851990 259.142975,303.129272 267.302032,302.900421 
	C270.471863,302.811523 271.313293,303.845093 271.162689,306.859650 
	C270.930145,311.514038 270.902466,316.199951 271.168945,320.850647 
	C271.357574,324.142334 270.277618,325.069275 266.999695,325.024628 
	C253.837387,324.845245 240.671219,324.950378 227.008606,324.950378 
z"/>
<path fill="#D5161B" opacity="1.000000" stroke="none" 
	d="
M98.396896,76.486893 
	C89.765190,75.864265 81.183945,75.062897 72.314697,77.733368 
	C71.930710,69.680855 72.106934,61.548054 71.841011,53.429737 
	C71.729515,50.025734 72.882706,49.202175 76.055870,49.318554 
	C82.018669,49.537243 88.010864,49.643894 93.960526,49.288975 
	C97.922737,49.052608 98.661697,50.587402 98.537140,54.131794 
	C98.280991,61.420662 98.447128,68.724365 98.396896,76.486893 
z"/>
<path fill="#23A638" opacity="1.000000" stroke="none" 
	d="
M71.940704,325.604248 
	C80.463684,326.956390 88.968452,327.041229 97.901604,325.020477 
	C98.361336,333.154968 98.277283,341.284912 98.459129,349.408936 
	C98.521477,352.194519 97.739082,353.167389 94.858353,353.079010 
	C88.395050,352.880768 81.916916,352.875031 75.454163,353.082184 
	C72.580978,353.174255 71.800728,352.247864 71.864700,349.448151 
	C72.042763,341.655731 71.929680,333.856659 71.940704,325.604248 
z"/>
<path fill="#FCFBF8" opacity="1.000000" stroke="none" 
	d="
M311.473816,305.508301 
	C309.669922,303.792877 310.330597,301.871033 310.326691,300.114716 
	C310.276855,277.792053 310.226074,255.468719 310.404358,233.147369 
	C310.421204,231.039047 308.247681,227.482529 312.749939,226.813416 
	C319.312195,225.838120 323.666138,227.667221 324.710388,232.113419 
	C325.197052,234.185638 325.124908,236.413406 325.128387,238.570969 
	C325.157410,256.562378 325.154938,274.553894 325.141571,292.545349 
	C325.132904,304.243561 323.738281,305.604706 311.473816,305.508301 
z"/>
<path fill="#FCFBF7" opacity="1.000000" stroke="none" 
	d="
M171.087006,248.764847 
	C168.606476,253.339630 163.248978,255.849640 158.935028,255.064163 
	C157.366608,254.778595 157.118484,253.978439 157.120087,252.702255 
	C157.130157,244.722763 157.126144,236.743271 157.126099,228.763779 
	C157.126083,227.911545 157.256943,227.216156 158.183640,226.767014 
	C162.429886,224.709076 170.146881,228.259659 171.087097,233.002014 
	C172.093918,238.080200 171.923477,243.240768 171.087006,248.764847 
z"/>
<path fill="#FCFAF6" opacity="1.000000" stroke="none" 
	d="
M246.278412,104.027260 
	C246.885071,109.237358 247.198608,114.060478 246.162537,118.813606 
	C245.179703,123.322449 237.667770,127.224106 233.380173,125.731674 
	C231.786987,125.177124 232.116669,123.963257 232.111969,122.887634 
	C232.078522,115.236183 232.085159,107.584488 232.104553,99.932938 
	C232.107788,98.655647 231.852036,97.394783 233.838989,96.982742 
	C238.713867,95.971809 244.452393,98.930962 246.278412,104.027260 
z"/>
<path fill="#FFFEFE" opacity="1.000000" stroke="none" 
	d="
M168.888687,170.304535 
	C167.519089,175.547867 164.135178,176.862061 159.611206,176.128616 
	C155.008102,175.382324 153.881165,171.978210 153.871414,168.047989 
	C153.818893,146.883209 153.779648,125.717827 153.899094,104.553581 
	C153.930786,98.939445 156.885483,96.013878 161.601791,96.120682 
	C166.248505,96.225906 169.025040,99.169762 169.043472,104.885345 
	C169.113373,126.548279 168.999344,148.211807 168.888687,170.304535 
z"/>
<path fill="#FDFCF9" opacity="1.000000" stroke="none" 
	d="
M311.430176,98.519073 
	C318.700409,93.903473 324.715515,96.549606 324.830505,104.612244 
	C325.131989,125.745239 325.036224,146.886032 324.876892,168.022049 
	C324.834625,173.622833 322.228973,176.137711 317.587189,176.299850 
	C312.515869,176.476990 310.139832,174.316315 309.476349,168.351822 
	C309.110291,165.061066 309.253296,161.708328 309.249756,158.383453 
	C309.232025,141.739426 309.240417,125.095345 309.242889,108.451286 
	C309.243378,105.113182 309.331970,101.789963 311.430176,98.519073 
z"/>
</svg>